<?xml version="1.0" encoding="utf-8"?>
<!-- Generator: Adobe Illustrator 19.1.0, SVG Export Plug-In . SVG Version: 6.00 Build 0)  -->
<!DOCTYPE svg PUBLIC "-//W3C//DTD SVG 1.1//EN" "http://www.w3.org/Graphics/SVG/1.1/DTD/svg11.dtd">
<svg version="1.1" xmlns="http://www.w3.org/2000/svg" xmlns:xlink="http://www.w3.org/1999/xlink" x="0px" y="0px"
	 viewBox="0 0 119.4 101" style="enable-background:new 0 0 119.4 101;" xml:space="preserve">
<style type="text/css">
	.st0{fill:#414042;}
	.st1{font-family:'Arvo-Bold';}
	.st2{font-size:19.6556px;}
	.st3{letter-spacing:5;}
	.st4{fill:none;}
	.st5{font-size:5.3531px;}
	.st6{letter-spacing:1;}
</style>
<g id="Layer_2">
</g>
<g id="Layer_1">
	<g>
		<polygon class="st0" points="61.6,0.8 108.8,37.6 109.8,37.6 61.6,0 13.3,37.6 14.3,37.6 		"/>
		<polygon class="st0" points="61.6,100.2 14.2,63.3 13.2,63.3 61.6,101 109.9,63.3 108.9,63.3 		"/>
		<polygon class="st0" points="61.6,99.4 15.2,63.3 14.2,63.3 61.6,100.2 108.9,63.3 107.9,63.3 		"/>
		<polygon class="st0" points="14.3,37.6 15.3,37.6 61.6,1.6 107.8,37.6 108.8,37.6 61.6,0.8 		"/>
	</g>
	<path class="st0" d="M64.9,23.9c-0.4-0.3-0.6-0.4-1-0.7c-1.4-1-2.8-1.8-4.3-2.6c1.2,1.1,1.8,1.7,2.7,2.7c-0.9,0.3-1.6,0.5-2.7,1
		c-0.5,0.2-0.7,0.3-1.2,0.5c0.4,0.2,0.6,0.3,1,0.5c1.6,0.9,2.4,1.4,3.8,2.5c-0.8-1.2-1.4-1.8-2.3-2.8c0.9-0.3,1.6-0.5,2.7-0.8
		C64.2,24,64.4,24,64.9,23.9z"/>
	<path class="st0" d="M64.9,79.5c-0.4-0.3-0.6-0.4-1-0.7c-1.4-1-2.8-1.8-4.3-2.6c1.2,1.1,1.8,1.7,2.7,2.7c-0.9,0.3-1.6,0.5-2.7,1
		c-0.5,0.2-0.7,0.3-1.2,0.5c0.4,0.2,0.6,0.3,1,0.5c1.6,0.9,2.4,1.4,3.8,2.5c-0.8-1.2-1.4-1.8-2.3-2.8c0.9-0.3,1.6-0.5,2.7-0.8
		C64.2,79.7,64.4,79.6,64.9,79.5z"/>
	<text transform="matrix(1 0 0 1 1 58.2447)" class="st0 st1 st2 st3">ENGAGE</text>
	<path id="SVGID_x5F_1_x5F_" class="st4" d="M0.3,52.3c19.6-21.5,100.4-21.5,120,0"/>
	<text>	<textPath  xlink:href="#SVGID_x5F_1_x5F_" startOffset="37.919%">
<tspan  class="st0 st1" style="font-size:5.9303px; letter-spacing:350;">PROJECT</tspan>	</textPath>
</text>
	<text transform="matrix(1 0 0 1 48.2671 69.7731)" class="st0 st1 st5 st6">ALPHA</text>
</g>
</svg>
