<?xml version="1.0" encoding="utf-8"?>
<!-- Generator: Adobe Illustrator 19.1.0, SVG Export Plug-In . SVG Version: 6.00 Build 0)  -->
<!DOCTYPE svg PUBLIC "-//W3C//DTD SVG 1.1//EN" "http://www.w3.org/Graphics/SVG/1.1/DTD/svg11.dtd">
<svg version="1.1" id="Layer_1" xmlns="http://www.w3.org/2000/svg" xmlns:xlink="http://www.w3.org/1999/xlink" x="0px" y="0px"
	 viewBox="0 0 119.4 101" style="enable-background:new 0 0 119.4 101;" xml:space="preserve">
<style type="text/css">
	.st0{fill:#FFFFFF;}
</style>
<g>
	<g>
		<polygon class="st0" points="61.6,0.8 108.8,37.6 109.8,37.6 61.6,0 13.3,37.6 14.3,37.6 		"/>
	</g>
	<g>
		<polygon class="st0" points="61.6,100.2 14.2,63.3 13.2,63.3 61.6,101 109.9,63.3 108.9,63.3 		"/>
	</g>
	<g>
		<polygon class="st0" points="61.6,99.4 15.2,63.3 14.2,63.3 61.6,100.2 108.9,63.3 107.9,63.3 		"/>
	</g>
	<g>
		<polygon class="st0" points="14.3,37.6 15.3,37.6 61.6,1.6 107.8,37.6 108.8,37.6 61.6,0.8 		"/>
	</g>
</g>
<g>
	<path class="st0" d="M64.9,23.9c-0.4-0.3-0.6-0.4-1-0.7c-1.4-1-2.8-1.8-4.3-2.6c1.2,1.1,1.8,1.7,2.7,2.7c-0.9,0.3-1.6,0.5-2.7,1
		c-0.5,0.2-0.7,0.3-1.2,0.5c0.4,0.2,0.6,0.3,1,0.5c1.6,0.9,2.4,1.4,3.8,2.5c-0.8-1.2-1.4-1.8-2.3-2.8c0.9-0.3,1.6-0.5,2.7-0.8
		C64.2,24,64.4,24,64.9,23.9z"/>
</g>
<g>
	<path class="st0" d="M64.9,79.5c-0.4-0.3-0.6-0.4-1-0.7c-1.4-1-2.8-1.8-4.3-2.6c1.2,1.1,1.8,1.7,2.7,2.7c-0.9,0.3-1.6,0.5-2.7,1
		c-0.5,0.2-0.7,0.3-1.2,0.5c0.4,0.2,0.6,0.3,1,0.5c1.6,0.9,2.4,1.4,3.8,2.5c-0.8-1.2-1.4-1.8-2.3-2.8c0.9-0.3,1.6-0.5,2.7-0.8
		C64.2,79.7,64.4,79.6,64.9,79.5z"/>
</g>
<g>
	<path class="st0" d="M2.1,43.7h11.6v5h-3.1v-2.1H6.8v2.9h2.9v2.8H6.8v3.4h3.7V53h3.1v5.2H2.1v-2.6h1.5v-9H2.1V43.7z"/>
	<path class="st0" d="M30.2,43.7h5.5v2.6h-1.2v11.9h-3.2l-6.1-9.4v6.8h1.2v2.6H21v-2.6h1.2v-9.3H21v-2.6h4.4l6,9.5v-6.9h-1.2V43.7z"
		/>
	<path class="st0" d="M53.6,58.2v-2.5c-0.4,0.7-0.8,1.2-1.2,1.5c-0.4,0.3-0.8,0.6-1.3,0.8s-1.1,0.3-1.9,0.3c-0.4,0-0.8-0.1-1.2-0.1
		c-0.4-0.1-0.8-0.2-1.2-0.4s-0.7-0.3-1.1-0.6s-0.7-0.5-1-0.8c-0.7-0.7-1.3-1.5-1.7-2.5s-0.6-2-0.6-3.1c0-0.7,0.1-1.3,0.2-2
		c0.2-0.6,0.4-1.2,0.7-1.8s0.7-1.1,1.1-1.5c0.4-0.5,0.9-0.8,1.4-1.2c0.5-0.3,1.1-0.6,1.7-0.8c0.6-0.2,1.2-0.3,1.9-0.3
		c0.8,0,1.4,0.1,2,0.3s1.2,0.6,1.8,1.1h2.1v3.2h-3c-0.3-0.5-0.6-0.8-0.8-1s-0.5-0.4-0.8-0.5s-0.7-0.2-1.3-0.2c-0.5,0-1,0.1-1.5,0.4
		c-0.5,0.2-0.9,0.6-1.2,1s-0.6,0.9-0.8,1.5c-0.2,0.6-0.3,1.1-0.3,1.7c0,0.6,0.1,1.1,0.3,1.7c0.2,0.5,0.4,1,0.8,1.4
		c0.4,0.4,0.8,0.7,1.2,1c0.5,0.2,1,0.3,1.5,0.3c0.7,0,1.3-0.2,1.8-0.6c0.5-0.4,0.9-0.9,1.1-1.6h-2.8v-2.6h6.7v7.8H53.6z"/>
	<path class="st0" d="M71.9,55.6h1.4l-0.7-2.1h-4.5l-0.7,2.1h1.5v2.6h-5.5v-2.6h1.1l4-11.9h3.8l3.9,11.9h1.1v2.6h-5.5V55.6z
		 M69,51.1h2.9l-1.5-4.7L69,51.1z"/>
	<path class="st0" d="M95,58.2v-2.5c-0.4,0.7-0.8,1.2-1.2,1.5c-0.4,0.3-0.8,0.6-1.3,0.8s-1.1,0.3-1.9,0.3c-0.4,0-0.8-0.1-1.2-0.1
		c-0.4-0.1-0.8-0.2-1.2-0.4s-0.7-0.3-1.1-0.6s-0.7-0.5-1-0.8C85.5,55.8,85,55,84.6,54S84,52.1,84,51c0-0.7,0.1-1.3,0.2-2
		c0.2-0.6,0.4-1.2,0.7-1.8s0.7-1.1,1.1-1.5c0.4-0.5,0.9-0.8,1.4-1.2c0.5-0.3,1.1-0.6,1.7-0.8c0.6-0.2,1.2-0.3,1.9-0.3
		c0.8,0,1.4,0.1,2,0.3s1.2,0.6,1.8,1.1h2.1v3.2h-3c-0.3-0.5-0.6-0.8-0.8-1s-0.5-0.4-0.8-0.5s-0.7-0.2-1.3-0.2c-0.5,0-1,0.1-1.5,0.4
		c-0.5,0.2-0.9,0.6-1.2,1s-0.6,0.9-0.8,1.5c-0.2,0.6-0.3,1.1-0.3,1.7c0,0.6,0.1,1.1,0.3,1.7c0.2,0.5,0.4,1,0.8,1.4
		c0.4,0.4,0.8,0.7,1.2,1c0.5,0.2,1,0.3,1.5,0.3c0.7,0,1.3-0.2,1.8-0.6c0.5-0.4,0.9-0.9,1.1-1.6h-2.8v-2.6h6.7v7.8H95z"/>
	<path class="st0" d="M105.8,43.7h11.6v5h-3.1v-2.1h-3.7v2.9h2.9v2.8h-2.9v3.4h3.7V53h3.1v5.2h-11.6v-2.6h1.5v-9h-1.5V43.7z"/>
</g>
<g>
	<path class="st0" d="M42.3,32.7l2-0.2c0.2,0,0.4,0,0.6,0c0.2,0.1,0.4,0.1,0.5,0.2c0.1,0.1,0.3,0.2,0.4,0.4c0.1,0.1,0.1,0.3,0.2,0.5
		c0,0.2,0,0.4,0,0.6c0,0.2-0.1,0.3-0.2,0.5c-0.1,0.1-0.3,0.3-0.5,0.4s-0.4,0.2-0.7,0.2l-0.6,0.1l0.1,0.8l0.4,0l0.1,0.8l-1.8,0.2
		l-0.1-0.8l0.5,0l-0.3-2.8l-0.5,0L42.3,32.7z M43.7,33.3l0.1,1.2l0.4,0c0.2,0,0.4-0.1,0.5-0.2c0.1-0.1,0.2-0.3,0.2-0.5
		c0-0.2-0.1-0.3-0.2-0.4c-0.1-0.1-0.3-0.1-0.5-0.1L43.7,33.3z"/>
	<path class="st0" d="M48.5,32.1l2.3-0.1c0.2,0,0.4,0,0.6,0.1s0.3,0.1,0.5,0.2c0.1,0.1,0.2,0.2,0.3,0.4c0.1,0.1,0.1,0.3,0.1,0.5
		c0,0.1,0,0.3,0,0.4c0,0.1-0.1,0.2-0.1,0.3C52.1,34,52.1,34,52,34.1c-0.1,0.1-0.2,0.1-0.3,0.2c0.1,0,0.2,0.1,0.3,0.2
		c0.1,0.1,0.1,0.2,0.2,0.4l0.2,0.6l0.4,0l0.1,0.9l-1.3,0.1l-0.2-1c0-0.1-0.1-0.2-0.1-0.3c0-0.1-0.1-0.2-0.2-0.2
		c-0.1-0.1-0.1-0.1-0.2-0.1c-0.1,0-0.2,0-0.3,0l-0.4,0l0.1,1l0.4,0l0,0.8l-1.8,0.1l0-0.8l0.5,0L49,32.9l-0.5,0L48.5,32.1z M50,32.9
		l0.1,1.1l0.6,0c0.1,0,0.2,0,0.3,0c0.1,0,0.2-0.1,0.2-0.1s0.1-0.1,0.1-0.2c0-0.1,0-0.1,0-0.2c0-0.2-0.1-0.3-0.2-0.4
		c-0.1-0.1-0.3-0.1-0.5-0.1L50,32.9z"/>
	<path class="st0" d="M57.2,36.3c-0.2,0-0.4,0-0.6-0.1c-0.2-0.1-0.4-0.1-0.5-0.2c-0.2-0.1-0.3-0.2-0.4-0.3s-0.2-0.3-0.3-0.5
		c-0.1-0.2-0.2-0.3-0.2-0.5C55.1,34.4,55,34.2,55,34c0-0.2,0-0.4,0.1-0.6c0-0.2,0.1-0.4,0.2-0.5c0.1-0.2,0.2-0.3,0.3-0.5
		c0.1-0.1,0.3-0.3,0.4-0.4c0.2-0.1,0.3-0.2,0.5-0.2c0.2-0.1,0.4-0.1,0.6-0.1c0.2,0,0.4,0,0.6,0.1c0.2,0.1,0.4,0.1,0.5,0.2
		c0.2,0.1,0.3,0.2,0.4,0.3c0.1,0.1,0.2,0.3,0.3,0.5c0.1,0.2,0.2,0.3,0.2,0.5c0.1,0.2,0.1,0.4,0.1,0.6c0,0.2,0,0.4-0.1,0.6
		c0,0.2-0.1,0.4-0.2,0.5c-0.1,0.2-0.2,0.3-0.3,0.5s-0.3,0.3-0.4,0.4c-0.2,0.1-0.3,0.2-0.5,0.2C57.6,36.2,57.4,36.3,57.2,36.3z
		 M57.2,35.4c0.2,0,0.3,0,0.5-0.1c0.1-0.1,0.3-0.2,0.4-0.3c0.1-0.1,0.2-0.3,0.2-0.4s0.1-0.3,0.1-0.5c0-0.2,0-0.4-0.1-0.5
		c-0.1-0.2-0.1-0.3-0.2-0.4s-0.2-0.2-0.4-0.3c-0.1-0.1-0.3-0.1-0.5-0.1s-0.3,0-0.5,0.1c-0.1,0.1-0.3,0.2-0.4,0.3
		c-0.1,0.1-0.2,0.3-0.2,0.4C56,33.6,56,33.8,56,34c0,0.2,0,0.4,0.1,0.5c0.1,0.2,0.1,0.3,0.2,0.4c0.1,0.1,0.2,0.2,0.4,0.3
		C56.9,35.3,57,35.4,57.2,35.4z"/>
	<path class="st0" d="M61.9,31.8l1.7,0l0,0.9l-0.3,0l0,3c0,0.2-0.1,0.3-0.2,0.4c-0.1,0.1-0.2,0.2-0.2,0.4c-0.1,0.1-0.2,0.2-0.3,0.4
		l-0.8-0.1c0.1-0.2,0.2-0.3,0.3-0.4c0.1-0.1,0.1-0.2,0.2-0.4s0.1-0.3,0.2-0.4l0-2.9l-0.4,0L61.9,31.8z"/>
	<path class="st0" d="M66.2,31.9l3.5,0.1l-0.1,1.5l-0.9,0l0-0.6l-1.1,0l0,0.9l0.9,0l0,0.8l-0.9,0l0,1l1.1,0l0-0.8l0.9,0l-0.1,1.6
		L66,36.2l0-0.8l0.5,0l0.1-2.7l-0.5,0L66.2,31.9z"/>
	<path class="st0" d="M75.1,33.7c-0.1-0.2-0.2-0.3-0.3-0.4c-0.1-0.1-0.2-0.1-0.3-0.2c-0.1,0-0.2-0.1-0.3-0.1c-0.2,0-0.3,0-0.5,0.1
		c-0.1,0.1-0.3,0.1-0.4,0.3c-0.1,0.1-0.2,0.3-0.3,0.4C73.1,34,73,34.2,73,34.4c0,0.2,0,0.4,0,0.5s0.1,0.3,0.2,0.5s0.2,0.2,0.3,0.3
		s0.3,0.1,0.4,0.1c0.1,0,0.2,0,0.3,0s0.2-0.1,0.3-0.1c0.1-0.1,0.2-0.1,0.2-0.2c0.1-0.1,0.1-0.2,0.2-0.2l0.9,0.3
		c-0.1,0.2-0.2,0.4-0.3,0.5c-0.1,0.2-0.3,0.3-0.5,0.4s-0.4,0.2-0.6,0.2c-0.2,0.1-0.4,0.1-0.7,0c-0.2,0-0.4-0.1-0.6-0.1
		c-0.2-0.1-0.3-0.2-0.5-0.3c-0.1-0.1-0.3-0.2-0.4-0.4c-0.1-0.1-0.2-0.3-0.3-0.5c-0.1-0.2-0.1-0.4-0.2-0.6c0-0.2,0-0.4,0-0.6
		c0-0.3,0.1-0.6,0.2-0.9c0.1-0.3,0.3-0.5,0.5-0.7c0.2-0.2,0.4-0.3,0.7-0.4c0.3-0.1,0.5-0.1,0.8-0.1c0.2,0,0.4,0.1,0.6,0.1
		c0.2,0.1,0.3,0.2,0.5,0.4l0.6,0.1l-0.1,1L75.1,33.7z"/>
	<path class="st0" d="M79.4,36.4l0.5,0.1l0.3-2.8l-0.5-0.1l-0.1,0.6L78.6,34l0.2-1.3l4,0.5l-0.2,1.3l-0.9-0.1l0.1-0.6l-0.6-0.1
		l-0.3,2.8l0.5,0.1l-0.1,0.8l-1.9-0.2L79.4,36.4z"/>
</g>
<g>
	<path class="st0" d="M50.6,69.1H51l-0.2-0.6h-1.2l-0.2,0.6h0.4v0.7h-1.5v-0.7h0.3l1.1-3.2h1l1.1,3.2h0.3v0.7h-1.5V69.1z M49.8,67.8
		h0.8l-0.4-1.3L49.8,67.8z"/>
	<path class="st0" d="M54.3,65.8H56v0.7h-0.4v2.5h0.9c0,0,0,0,0.1,0c0,0,0,0,0.1-0.1s0,0,0-0.1c0,0,0,0,0-0.1v-0.5h0.8v1.5h-3.2
		v-0.7h0.4v-2.5h-0.4V65.8z"/>
	<path class="st0" d="M59.7,65.8h1.8c0.2,0,0.4,0,0.6,0.1s0.3,0.1,0.4,0.3c0.1,0.1,0.2,0.2,0.3,0.4S63,66.8,63,67
		c0,0.2,0,0.4-0.1,0.5c-0.1,0.2-0.1,0.3-0.3,0.4c-0.1,0.1-0.3,0.2-0.4,0.3c-0.2,0.1-0.4,0.1-0.6,0.1H61v0.8h0.4v0.7h-1.6v-0.7h0.4
		v-2.5h-0.4V65.8z M61,66.5v1.1h0.4c0.2,0,0.4,0,0.5-0.1c0.1-0.1,0.2-0.2,0.2-0.4c0-0.2-0.1-0.3-0.2-0.4c-0.1-0.1-0.3-0.1-0.5-0.1
		H61z"/>
	<path class="st0" d="M67.9,65.8h1.7v0.7h-0.4v2.5h0.4v0.7h-1.7v-0.7h0.4v-1h-1.8v1H67v0.7h-1.7v-0.7h0.4v-2.5h-0.4v-0.7H67v0.7
		h-0.4v0.8h1.8v-0.8h-0.4V65.8z"/>
	<path class="st0" d="M74.1,69.1h0.4l-0.2-0.6h-1.2l-0.2,0.6h0.4v0.7h-1.5v-0.7h0.3l1.1-3.2h1l1.1,3.2h0.3v0.7h-1.5V69.1z
		 M73.3,67.8h0.8l-0.4-1.3L73.3,67.8z"/>
</g>
</svg>
